<svg xmlns="http://www.w3.org/2000/svg" width="151" height="24" viewBox="0 0 151 24" fill="none"><path d="M28.5884 3.9959H20.2461V7.04297H28.5884C29.7071 7.04297 30.6466 7.95665 30.6466 9.10983V9.82392H23.8076C21.0283 9.82392 18.769 12.1081 18.769 14.929C18.769 17.7498 21.0283 20.034 23.8076 20.034H33.6226V9.10983C33.6226 6.28897 31.3808 3.9959 28.5884 3.9959ZM30.6466 17.018H23.8076C22.6758 17.018 21.745 16.0866 21.745 14.9334C21.745 13.7802 22.6714 12.8444 23.8076 12.8444H30.6466V17.018Z" fill="#1A41C1"></path><path d="M40.9598 3.99147C38.1848 3.99147 35.9212 6.28897 35.9212 9.10983V20.0385H38.8928V9.12757C38.8928 7.97439 39.8236 7.04297 40.9598 7.04297H45.8279V20.0385H48.8126V7.04297H53.9998C55.1316 7.04297 56.0537 7.97439 56.0537 9.12757V20.0385H59.0296V9.10983C59.0296 6.28897 56.7791 3.99147 54.0085 3.99147H40.9598Z" fill="#1A41C1"></path><path d="M72.996 11.6247L69.7361 10.5868L65.0514 9.06991C64.6363 8.92355 64.361 8.53324 64.361 8.08527C64.361 7.50868 64.8198 7.03853 65.3879 7.03853H74.1017V3.98703H65.3879C63.1636 3.98703 61.3544 5.82769 61.3544 8.08527C61.3544 9.77069 62.3464 11.261 63.9021 11.8863C69.1869 13.5718 71.8307 14.4145 71.8336 14.4145C72.3624 14.5963 72.712 15.1019 72.712 15.6741C72.712 16.4104 72.1221 17.0136 71.3966 17.0136H61.3107V20.034H71.3966C73.7739 20.034 75.7011 18.0781 75.7011 15.6741C75.7011 13.8822 74.6304 12.2944 72.9917 11.6247H72.996Z" fill="#1A41C1"></path><path d="M112.356 4.00034H107.178C104.403 4.00034 102.139 6.28897 102.139 9.10983V20.034H105.115V9.12757C105.115 7.97882 106.042 7.04297 107.178 7.04297H112.356C113.479 7.04297 114.415 7.97882 114.415 9.12757C114.415 9.12757 114.406 19.728 114.406 20.034H117.382V9.1054C117.382 6.28453 115.123 3.9959 112.356 3.9959V4.00034Z" fill="#1A41C1"></path><path d="M127.918 14.9201V7.04297H132.633V3.9959H127.918V0.939967H124.942C124.942 2.31492 124.946 11.8154 124.946 11.8154L124.938 14.9245C124.938 17.7454 127.201 20.0385 129.976 20.0385H134.132V17.0091H129.976C128.836 17.0091 127.913 16.0822 127.913 14.9245L127.918 14.9201Z" fill="#1A41C1"></path><path d="M122.656 3.99147H119.685V20.0385H122.656V3.99147Z" fill="#1A41C1"></path><path d="M150.218 13.248V9.14531C150.218 6.32888 147.959 4.04026 145.188 4.04026H140.91C138.131 4.04026 135.88 6.32888 135.88 9.14531V14.9378C135.88 17.7498 138.139 20.0429 140.914 20.0429H148.728V17.0136H140.914C139.774 17.0136 138.856 16.0866 138.856 14.929V13.2569C138.856 13.2569 149.916 13.2569 150.222 13.2569L150.218 13.248ZM138.852 10.2275V9.14531C138.852 7.99657 139.774 7.06071 140.91 7.06071H145.188C146.315 7.06071 147.242 7.99657 147.242 9.14531V10.2275H138.852Z" fill="#1A41C1"></path><path d="M13.879 10.3428L9.07207 8.79936L4.0903 7.18934C3.43917 6.96313 3.00217 6.33332 3.00217 5.63254C3.00217 4.71886 3.75381 3.99147 4.61906 3.99147H15.4828V0.939967H4.62343C2.08011 0.939967 0 3.04231 0 5.63254C0 7.5619 1.14493 9.2695 2.89729 9.98802L12.6817 13.1016C13.4726 13.3855 14.0145 14.1484 14.0145 15.0088C14.0145 16.1132 13.1274 17.0224 12.0305 17.0224H0V20.0429H12.0349C14.7661 20.0429 16.9905 17.7809 16.9905 15.0132C16.9905 12.9553 15.7669 11.119 13.879 10.3517V10.3428Z" fill="#1A41C1"></path><path d="M91.7345 10.5646C92.2458 13.0794 91.5859 15.8027 89.7199 17.8164C87.8627 19.83 85.2232 20.6683 82.7192 20.3135C83.0601 20.9654 83.5146 21.5642 84.0652 22.0965C86.862 24.7532 91.2669 24.6113 93.8802 21.7815C96.5021 18.9474 96.3579 14.4766 93.5743 11.8198C93.0149 11.2964 92.39 10.8751 91.7345 10.5646Z" fill="#1A41C1"></path><path d="M88.5095 7.04297C87.9851 7.60626 87.5699 8.23607 87.2771 8.90581C89.7505 8.38687 92.4381 9.05217 94.4089 10.9416C96.3973 12.8266 97.2232 15.5056 96.8736 18.0514C97.5116 17.701 98.1103 17.2442 98.6347 16.6765C101.252 13.8468 101.117 9.37151 98.3157 6.72363C95.5276 4.06243 91.1314 4.20436 88.5095 7.04297Z" fill="#1A41C1"></path><path d="M85.6384 13.4343C85.1315 10.915 85.787 8.19615 87.6442 6.18695C89.5102 4.17332 92.1409 3.33948 94.6493 3.6943C94.304 3.03787 93.8583 2.43911 93.3033 1.90687C90.5109 -0.754326 86.1103 -0.612396 83.4927 2.22177C80.8664 5.05151 81.0062 9.52232 83.7986 12.1835C84.3492 12.7069 84.9785 13.1282 85.6384 13.4298V13.4343Z" fill="#1A41C1"></path><path d="M88.8547 16.9604C89.3747 16.3971 89.7899 15.7628 90.0958 15.0975C87.618 15.6165 84.9305 14.9423 82.9552 13.0573C80.9756 11.1678 80.1366 8.50219 80.4906 5.94745C79.8525 6.29784 79.2626 6.75911 78.7338 7.31796C76.1162 10.1566 76.2604 14.6185 79.0528 17.2797C81.8321 19.9365 86.2371 19.7945 88.8547 16.9648V16.9604Z" fill="#1A41C1"></path></svg>
